<?xml version="1.0" encoding="UTF-8"?>
<svg id="Layer_1" data-name="Layer 1" xmlns="http://www.w3.org/2000/svg" viewBox="0 0 1367.54 724.7">
  <defs>
    <style>
      .cls-1 {
        fill: #fff;
      }

      .cls-2 {
        fill: #258bcc;
      }

      .cls-3 {
        fill: #3c3c3b;
      }

      .cls-4 {
        fill: #ededed;
      }
    </style>
  </defs>
  <g>
    <g>
      <path class="cls-2" d="m1015.7,419.11h-72.13v138.23h81.06l-3.46,21.4h-100.89v-317.26h99.62v21.48h-76.33v114.75h72.13v21.4Z"/>
      <path class="cls-2" d="m1075.53,552.3v-102.19c0-2.57-.4-4.21-.92-5.84l-48.14-156.35h21.16c14.88,51.19,33.27,113.58,37.9,134.69h.4c4.88-21.55,23.87-86.55,37.63-134.69h20.51l-48.33,156.99c-.4,1.65-.79,3.42-.79,6.37v101.03h-19.4Z"/>
      <path class="cls-2" d="m1242.4,419.28h-60.11v115.19h67.55l-2.88,17.84h-84.07v-264.38h83.01v17.9h-63.61v95.62h60.11v17.84Z"/>
      <path class="cls-2" d="m1286.16,480.19v14.63c0,28.51,10.46,43.45,31.09,43.45s30.83-12.78,30.83-49.89c0-32.69-7.27-46.92-34.77-68.15-28.16-21.89-41.94-34.54-41.94-73.4,0-32.57,9.69-62.6,46.87-62.27,32.84.33,45.22,20.59,45.22,57.53v10.99h-19.34v-10.47c0-24.39-5.1-40.67-26.34-40.67s-27,18.93-27,41.87c0,28.65,5.83,38.08,30.77,57.37,34.72,26.69,45.99,41.12,45.99,84.78,0,36.94-8.87,69.63-50.22,69.63-38.36,0-50.57-25.74-50.57-60.57v-14.83h19.4Z"/>
    </g>
    <g>
      <path class="cls-4" d="m40.78,474.49v16.34c0,19.67,5.9,30.63,21.4,30.63s20.01-15.06,20.01-32.22c0-28.42-6.13-37.23-34.48-59.6-28.45-22.46-43.65-36.82-43.65-75.96,0-34.85,10.54-70.01,58.26-69.96,48.8.05,56.33,34.84,56.33,63.52v14.12h-40.43v-13.03c0-18.41-3.1-29.55-16.65-29.55s-16.74,11.52-16.74,29.04c0,18.68,3.54,27.83,26.78,44.83,39.56,29.26,51.69,46.25,51.69,90.48,0,37.5-13.14,73.05-62.48,73.05S0,525.01,0,490.18v-15.69h40.78Z"/>
      <path class="cls-4" d="m274.93,358.09v123.46c0,50.66-21.5,74.62-66.29,74.62s-62.32-24.57-62.32-73.92v-124.46c0-50.63,25.49-73.73,64.9-73.73s63.71,23.16,63.71,74.03Zm-87.09-3.99v132.98c0,21.97,7.93,32.29,22.63,32.29,15.84,0,22.94-9.62,22.94-32.87v-132.7c0-20.99-6.44-32.59-22.98-32.59-14.69,0-22.59,10.51-22.59,32.89Zm71.64,173.38l34.67,27.45-23.88,28.46-43.27-34.01,32.48-21.9Z"/>
      <path class="cls-4" d="m345.15,287.92v201.1c0,19.31,6.32,30.3,22.1,30.3s21.4-12.35,21.4-30.25v-201.15h40.82v200.31c0,41.72-18.86,67.94-62.97,67.94s-62.13-22.74-62.13-67.79v-200.45h40.77Z"/>
      <path class="cls-4" d="m498.23,481.58l-9.26,70.72h-41.47l42.59-264.38h57.61l44.22,264.38h-42.61l-10.4-70.72h-40.67Zm35.85-37.5c-6.04-44.9-11.82-87.52-14.85-117.41h-1.49c-1.14,21.79-9.09,78.4-14.36,117.41h30.69Z"/>
      <path class="cls-4" d="m652.22,434.08v118.22h-40.77v-264.38h56.48c40.23,0,63.98,16.12,63.98,63.71v10.07c0,40.63-16.67,50.96-26.91,55.16,15.42,7.24,24.24,18.35,24.24,54.22,0,22.26-.4,65.21,2.42,81.23h-39.38c-3.51-15.97-2.77-59.4-2.77-78.6,0-32.23-4.15-39.62-27.81-39.62h-9.46Zm0-33.66h9.35c21.58,0,29.51-8.13,29.51-36.88v-9.07c0-20.44-4.23-32.88-27.34-32.88h-11.52v78.83Z"/>
      <path class="cls-4" d="m860.78,431.53h-58.12v83.27h66.98l-5.16,37.5h-102.59v-264.38h102.1v37.85h-61.33v68.27h58.12v37.5Z"/>
    </g>
  </g>
  <g>
    <path class="cls-1" d="m198.47,686.33c-3.99,9.87-11.21,18.87-26.11,18.87s-21.9-9.77-21.9-26.24c0-17.65,9.85-43.39,32.14-43.39,13.92,0,20.54,8.64,20.72,21h-4.86c-.68-10.42-5.87-16.57-16.28-16.57-17.56,0-26.56,22.25-26.56,38.75,0,12.83,5.33,22.03,17.06,22.03,9.81,0,16-4.58,20.73-14.44h5.06Z"/>
    <path class="cls-1" d="m258.71,672.61c0,13.97-6.94,32.39-24.27,32.39-11.28,0-16.46-8.01-16.46-18.86,0-13.55,7.71-31.52,24.66-31.52,10.41,0,16.08,7.06,16.08,17.99Zm-35.86,13.15c0,8.35,3.2,15.01,12.19,15.01,13.19,0,18.81-15.87,18.81-27.78,0-8.64-3.68-14.14-11.91-14.14-12.99,0-19.09,15.46-19.09,26.91Z"/>
    <path class="cls-1" d="m281.65,670.74c2.15-10.25,2.83-13.66,3.22-15.32h4.47c-.29,1.74-.96,5.42-1.64,8.54,2.73-4.56,7.11-9.32,15.77-9.32s14.74,5.49,11.92,18.72l-6.55,30.87h-4.77l6.44-30.63c1.55-7.47.4-14.53-8.04-14.53-10.43,0-15.66,8.95-18.09,20.41l-5.19,24.75h-4.57l7.03-33.49Z"/>
    <path class="cls-1" d="m341.06,670.74c2.15-10.25,2.83-13.66,3.22-15.32h4.47c-.29,1.74-.96,5.42-1.64,8.54,2.73-4.56,7.11-9.32,15.77-9.32s14.74,5.49,11.92,18.72l-6.55,30.87h-4.77l6.44-30.63c1.55-7.47.4-14.53-8.04-14.53-10.43,0-15.66,8.95-18.09,20.41l-5.19,24.75h-4.57l7.03-33.49Z"/>
    <path class="cls-1" d="m399.3,680.36c-.48,2.02-.68,4.34-.68,6.57,0,8.5,3.47,14.04,11.61,14.04,9.39,0,12.48-6.76,14.42-10.16h4.67c-1.89,4.31-6.42,14.39-19.78,14.39-11.18,0-15.69-8-15.69-17.9,0-14.57,7.88-32.67,23.97-32.67,10.87,0,15.1,7.62,15.1,16.61,0,3.11-.58,6.43-1.18,9.12h-32.45Zm28.49-4.09c.29-1.65.49-2.82.49-4.75,0-7.92-3.57-12.67-11.23-12.67-8.83,0-14.62,8.06-16.94,17.42h27.68Z"/>
    <path class="cls-1" d="m485.81,690.21c-3.59,9.55-10.23,15.17-20.47,15.17s-15.39-7.41-15.39-18.17c0-13.66,7.61-32.59,24.25-32.59,10.46,0,15.21,6.64,14.81,16.06h-4.57c-.09-5.25-1.64-11.74-11.02-11.74-12.13,0-18.6,15.79-18.6,27.69,0,9.31,4.06,14.43,11.6,14.43,6.6,0,11.24-3.5,14.62-10.85h4.76Z"/>
    <path class="cls-1" d="m507.05,655.41h8.66l3.22-14.8h4.56l-3.22,14.8h10.79l-.91,4.13h-10.79l-7.47,34.55c-.97,4.56-.1,6.6,4.19,6.6,2.9,0,4.84-.68,5.73-.87l-.8,4.01c-1.78.79-4.53,1.08-6.1,1.08-5.45,0-9.55-1.99-7.69-10.89l7.58-34.48h-8.66l.91-4.13Z"/>
    <path class="cls-1" d="m550.5,655.41h4.57l-10.35,48.81h-4.57l10.35-48.81Zm4.67-22.3h4.57l-1.96,9.43h-4.57l1.96-9.43Z"/>
    <path class="cls-1" d="m577.04,670.74c2.15-10.25,2.83-13.66,3.22-15.32h4.47c-.29,1.74-.96,5.42-1.64,8.54,2.73-4.56,7.11-9.32,15.77-9.32s14.74,5.49,11.92,18.72l-6.55,30.87h-4.77l6.44-30.63c1.55-7.47.4-14.53-8.04-14.53-10.43,0-15.66,8.95-18.09,20.41l-5.19,24.75h-4.57l7.03-33.49Z"/>
    <path class="cls-1" d="m662.71,701.94c-3.4,15.48-9.05,22.76-22.05,22.76s-15.7-8.03-15.4-14.39h4.56c.19,7.25,4.44,10.27,11.43,10.27,10.49,0,14.16-7.17,17.17-19.59l1.54-6.36c-3.89,6.59-8.87,9.58-15.95,9.58-9.37,0-14.09-6.83-14.09-17.88,0-13.18,8.21-31.7,24.02-31.7,8.27,0,11.99,4.56,12.59,8.92.59-2.83,1.55-6.68,1.94-8.14h4.47c-.59,2.27-1.76,7.24-3.13,13.79l-7.11,32.74Zm-27.9-15.83c0,8.05,2.72,13.77,10.38,13.77,10.37,0,15.88-10.25,18.12-20.54,2.23-10.47,1.56-20.29-9.98-20.29-12.14,0-18.51,16.11-18.51,27.05Z"/>
    <path class="cls-1" d="m736.24,636.54h36.21l-1,4.34h-31.35l-5.42,26.03h29.4l-1,4.34h-29.4l-6.91,32.97h-4.86l14.34-67.68Z"/>
    <path class="cls-1" d="m789.99,655.41h4.57l-10.35,48.81h-4.57l10.35-48.81Zm4.67-22.3h4.57l-1.96,9.43h-4.57l1.96-9.43Z"/>
    <path class="cls-1" d="m809.5,704.22l15.02-71.11h4.57l-15.02,71.11h-4.57Z"/>
    <path class="cls-1" d="m846.38,670.64c1.67-8.04,2.73-12.89,3.22-15.23h4.47c-.2,1.37-.78,5.06-1.45,7.87,3.13-4.77,7.32-8.65,14.24-8.65s10.42,4.28,10.72,9.32c3.03-4.95,8.19-9.32,15.5-9.32s13.41,4.59,10.67,17.59l-6.73,32.01h-4.57l6.54-31.34c1.55-6.97.86-13.83-6.89-13.83-8.43,0-13.74,8.11-15.59,16.87l-5.95,28.3h-4.57l6.35-30.38c1.83-8.79.96-14.79-6.79-14.79s-13.45,6.86-15.78,17.65l-5.86,27.52h-4.57l7.03-33.58Z"/>
    <path class="cls-1" d="m945.97,676.93l-1,4.53h-22l1-4.53h22Z"/>
    <path class="cls-1" d="m976.22,636.54h4.87l-13.43,63.34h32.98l-1.8,4.34h-36.96l14.34-67.68Z"/>
    <path class="cls-1" d="m1057.95,672.61c0,13.97-6.94,32.39-24.27,32.39-11.28,0-16.46-8.01-16.46-18.86,0-13.55,7.71-31.52,24.66-31.52,10.41,0,16.08,7.06,16.08,17.99Zm-35.86,13.15c0,8.35,3.2,15.01,12.19,15.01,13.19,0,18.8-15.87,18.8-27.78,0-8.64-3.68-14.14-11.91-14.14-12.99,0-19.09,15.46-19.09,26.91Z"/>
    <path class="cls-1" d="m1081.19,655.41c2.69,24,4.14,39.26,4.53,44.33h.1c1.5-3.6,9.04-17.55,23.77-44.33h4.97c-.17.32-26.66,48.49-26.82,48.81h-5.67l-5.44-48.81h4.57Z"/>
    <path class="cls-1" d="m1130.65,680.36c-.48,2.02-.68,4.34-.68,6.57,0,8.5,3.47,14.04,11.62,14.04,9.39,0,12.48-6.76,14.42-10.16h4.67c-1.89,4.31-6.42,14.39-19.78,14.39-11.18,0-15.69-8-15.69-17.9,0-14.57,7.88-32.67,23.97-32.67,10.87,0,15.1,7.62,15.1,16.61,0,3.11-.58,6.43-1.18,9.12h-32.45Zm28.49-4.09c.29-1.65.49-2.82.49-4.75,0-7.92-3.57-12.67-11.23-12.67-8.83,0-14.62,8.06-16.94,17.42h27.68Z"/>
    <path class="cls-1" d="m1186.74,671.91c1.56-7.62,2.64-13.37,3.22-16.5h4.37c-.1,1.08-.97,6.42-1.85,10.31,4.18-7.47,11.05-11.09,18.31-11.09l-1.11,5.06c-11,.76-17.7,8.49-20.04,19.8l-5.16,24.74h-4.57l6.83-32.31Z"/>
    <path class="cls-1" d="m1224.6,689.56c.29,6.89,4.08,11.42,12,11.42,7.06,0,11.31-4.33,11.31-9.95,0-4.46-2.25-7.36-10.01-10.85-7.74-3.52-11.65-5.98-11.65-12.63s4.92-12.93,14.83-12.93c10.98,0,14.53,7.23,14.53,14.37h-4.47c-.29-5.62-2.62-10.26-10.74-10.26-5.98,0-9.38,3.56-9.38,8.41,0,4.07,2.05,5.71,8.76,8.82,7.75,3.52,13.01,6.85,13.01,14.37,0,7.92-5.29,14.77-16.87,14.77-10.49,0-16.08-6.15-15.88-15.54h4.57Z"/>
  </g>
  <polygon class="cls-4" points="200.14 170.03 341.51 29.16 348.57 70.61 308.07 151.65 200.14 170.03"/>
  <polygon class="cls-4" points="692.77 86.12 512.74 0 519.8 41.45 584.84 104.51 692.77 86.12"/>
  <path class="cls-4" d="m686.75,87.15l-204.17,34.77-14.66,2.5-41.3,7.03-6.76,1.15-212.07,36.12c-10.09,1.72-16.87,11.29-15.15,21.38l14.84,87.12c4.25,24.94,27.91,41.72,52.85,37.47l146.77-25c24.94-4.25,41.72-27.91,37.47-52.85l-9.37-55.01,41.3-7.03,9.37,55.01c4.25,24.94,27.91,41.72,52.85,37.47l146.77-25c24.94-4.25,41.72-27.91,37.47-52.85l-14.84-87.12c-1.72-10.09-11.29-16.87-21.38-15.15Z"/>
  <path class="cls-3" d="m275.57,137.7h88.06c1.43,0,2.58,1.16,2.58,2.58v173.28c0,1.43-1.16,2.58-2.58,2.58h-88.06v-178.44h0Z" transform="translate(490.71 -127.52) rotate(80.33)"/>
  <path class="cls-3" d="m553.96,90.28h88.06c1.43,0,2.58,1.16,2.58,2.58v173.28c0,1.43-1.16,2.58-2.58,2.58h-88.06V90.28h0Z" transform="translate(675.61 -441.42) rotate(80.33)"/>
  <circle class="cls-4" cx="598.75" cy="179.74" r="35.24"/>
  <circle class="cls-4" cx="314.99" cy="226.68" r="35.24"/>
  <circle class="cls-3" cx="598.75" cy="179.74" r="10.03"/>
  <circle class="cls-3" cx="315.17" cy="226.32" r="10.03"/>
</svg>